<?xml version="1.0" standalone="no"?>
<!DOCTYPE svg PUBLIC "-//W3C//DTD SVG 20010904//EN"
 "http://www.w3.org/TR/2001/REC-SVG-20010904/DTD/svg10.dtd">
<svg version="1.0" xmlns="http://www.w3.org/2000/svg"
 width="500.000000pt" height="500.000000pt" viewBox="0 0 500.000000 500.000000"
 preserveAspectRatio="xMidYMid meet">
<metadata>
Created by potrace 1.14, written by Peter Selinger 2001-2017
</metadata>
<g transform="translate(0.000000,500.000000) scale(0.100000,-0.100000)"
fill="#000000" stroke="none">
<path d="M2285 4708 c-750 -68 -1434 -541 -1773 -1226 -369 -746 -289 -1640
206 -2308 80 -107 281 -316 387 -401 305 -246 676 -411 1053 -468 147 -23 387
-30 547 -16 513 45 988 266 1356 631 197 195 315 359 435 605 119 244 187 482
215 755 15 141 6 438 -16 570 -119 707 -554 1304 -1185 1624 -386 196 -791
274 -1225 234z m443 -139 c299 -32 620 -142 870 -297 321 -199 588 -491 760
-830 156 -306 224 -594 224 -942 0 -397 -94 -741 -292 -1070 -291 -484 -738
-815 -1288 -954 -309 -79 -695 -77 -1014 3 -356 91 -662 260 -927 515 -842
810 -858 2145 -36 2971 240 242 504 405 820 510 124 42 304 82 416 94 121 12
354 13 467 0z"/>
<path d="M2311 4481 c-17 -11 -7 -45 12 -39 13 5 23 48 10 48 -4 0 -14 -4 -22
-9z"/>
<path d="M2380 4470 c0 -13 7 -20 20 -20 13 0 20 7 20 20 0 13 -7 20 -20 20
-13 0 -20 -7 -20 -20z"/>
<path d="M2460 4470 c0 -17 7 -20 40 -20 33 0 40 3 40 20 0 17 -7 20 -40 20
-33 0 -40 -3 -40 -20z"/>
<path d="M2580 4470 c0 -13 7 -20 20 -20 13 0 20 7 20 20 0 13 -7 20 -20 20
-13 0 -20 -7 -20 -20z"/>
<path d="M2663 4474 c-7 -19 11 -39 26 -30 16 10 13 33 -4 40 -9 3 -18 -1 -22
-10z"/>
<path d="M2226 4471 c-11 -18 5 -39 25 -34 13 4 18 11 15 20 -3 8 -6 17 -6 19
0 8 -29 4 -34 -5z"/>
<path d="M2740 4461 c0 -21 26 -36 36 -20 9 15 -3 39 -21 39 -8 0 -15 -9 -15
-19z"/>
<path d="M2159 4462 c-11 -2 -15 -10 -12 -23 6 -21 11 -23 32 -10 18 11 2 38
-20 33z"/>
<path d="M2822 4448 c2 -12 9 -23 15 -26 19 -6 29 28 12 39 -23 14 -31 10 -27
-13z"/>
<path d="M2070 4430 c0 -13 7 -20 20 -20 13 0 20 7 20 20 0 13 -7 20 -20 20
-13 0 -20 -7 -20 -20z"/>
<path d="M2896 4434 c-9 -23 -8 -24 13 -24 16 0 31 18 31 36 0 12 -39 2 -44
-12z"/>
<path d="M1990 4410 c0 -13 7 -20 20 -20 13 0 20 7 20 20 0 13 -7 20 -20 20
-13 0 -20 -7 -20 -20z"/>
<path d="M2975 4420 c-8 -14 3 -30 21 -30 8 0 14 9 14 20 0 21 -24 28 -35 10z"/>
<path d="M1916 4402 c-2 -4 -1 -14 4 -21 11 -19 41 -6 34 14 -6 16 -29 20 -38
7z"/>
<path d="M3050 4389 c0 -25 33 -22 38 4 2 12 -3 17 -17 17 -15 0 -21 -6 -21
-21z"/>
<path d="M1843 4382 c-10 -7 -10 -12 0 -25 15 -20 43 -7 34 17 -7 18 -16 20
-34 8z"/>
<path d="M3126 4373 c-6 -15 8 -32 25 -33 15 0 16 39 2 44 -20 8 -20 8 -27
-11z"/>
<path d="M1764 4349 c-9 -15 11 -33 30 -26 9 4 13 13 10 22 -7 17 -30 20 -40
4z"/>
<path d="M3200 4341 c0 -24 26 -35 34 -14 8 19 -1 33 -20 33 -8 0 -14 -9 -14
-19z"/>
<path d="M1696 4321 c-4 -5 -3 -16 0 -25 5 -12 10 -13 25 -6 10 6 16 17 13 25
-7 17 -30 20 -38 6z"/>
<path d="M2448 4323 c-14 -4 -18 -15 -18 -50 l0 -46 -41 47 c-22 25 -49 46
-60 46 -17 0 -19 -8 -19 -82 0 -95 8 -113 39 -103 20 6 22 11 16 46 -9 50 5
50 45 -2 23 -28 39 -39 54 -37 20 3 21 8 18 88 -2 47 -7 88 -10 91 -4 3 -15 4
-24 2z"/>
<path d="M2527 4324 c-17 -17 -6 -43 20 -46 26 -3 27 -4 24 -70 -2 -67 -2 -68
23 -68 22 0 26 5 26 28 0 15 3 44 6 65 6 31 11 37 30 37 19 0 24 5 24 25 0 24
-3 25 -59 25 -33 0 -66 2 -73 5 -8 3 -17 2 -21 -1z"/>
<path d="M3277 4323 c-14 -13 -6 -33 12 -33 24 0 35 26 15 34 -19 7 -19 7 -27
-1z"/>
<path d="M2718 4221 c-16 -102 -23 -93 80 -107 48 -6 52 -5 52 14 0 16 -9 21
-45 26 -30 5 -45 12 -45 22 0 11 10 14 37 12 29 -2 38 1 41 14 2 12 -6 19 -33
24 -52 9 -38 30 17 26 34 -3 47 1 51 12 7 19 3 22 -48 30 -22 4 -52 9 -66 12
-26 5 -26 4 -41 -85z"/>
<path d="M1631 4290 c-19 -11 -6 -41 14 -34 16 6 20 29 7 38 -4 2 -14 1 -21
-4z"/>
<path d="M2153 4293 c-13 -3 -25 -14 -28 -26 -9 -41 -25 -141 -25 -154 0 -21
47 -16 53 6 6 25 58 37 72 17 11 -14 55 -12 55 2 0 11 -92 162 -98 161 -4 -1
-17 -4 -29 -6z m37 -95 c0 -5 -7 -8 -15 -8 -17 0 -18 2 -9 25 5 13 8 14 15 3
5 -7 9 -16 9 -20z"/>
<path d="M3346 4283 c-6 -15 8 -32 25 -33 14 0 19 34 7 42 -19 11 -25 10 -32
-9z"/>
<path d="M1546 4251 c-3 -4 0 -15 7 -24 15 -21 43 -6 34 17 -7 17 -32 22 -41
7z"/>
<path d="M2926 4238 c-23 -32 -20 -44 19 -75 19 -15 35 -31 35 -35 0 -13 -35
-9 -56 7 -26 19 -31 19 -37 -5 -4 -14 2 -25 16 -34 53 -34 108 -31 127 4 15
29 4 56 -31 77 -35 21 -40 48 -6 37 12 -3 28 -11 34 -16 9 -7 15 -5 20 7 17
47 -91 76 -121 33z"/>
<path d="M3415 4250 c-4 -7 -3 -16 3 -22 14 -14 45 -2 40 15 -6 16 -34 21 -43
7z"/>
<path d="M1945 4241 c-58 -24 -77 -97 -38 -148 36 -50 154 -39 161 15 4 26 -3
27 -52 7 -47 -20 -76 -7 -76 34 0 35 17 50 63 58 28 4 34 9 30 24 -6 20 -50
25 -88 10z"/>
<path d="M1490 4215 c-10 -12 -10 -19 -2 -27 17 -17 37 5 25 27 -9 15 -11 15
-23 0z"/>
<path d="M3485 4210 c-8 -13 3 -30 20 -30 14 0 27 24 18 34 -10 9 -31 7 -38
-4z"/>
<path d="M1785 4176 c-18 -13 -17 -16 15 -95 19 -44 36 -81 40 -81 3 0 14 6
24 13 16 12 15 17 -14 87 -39 91 -41 94 -65 76z"/>
<path d="M1416 4171 c-4 -5 -3 -16 0 -25 5 -12 10 -13 25 -6 10 6 16 17 13 25
-7 17 -30 20 -38 6z"/>
<path d="M3555 4170 c-4 -6 -1 -18 6 -26 12 -14 14 -14 26 2 10 14 10 19 0 26
-16 10 -25 10 -32 -2z"/>
<path d="M3180 4095 c-53 -53 -62 -67 -50 -75 19 -12 37 -13 45 -1 10 17 65
-9 65 -30 0 -16 36 -46 45 -37 2 2 7 45 11 95 6 85 5 92 -14 102 -11 6 -24 11
-29 11 -5 0 -38 -29 -73 -65z m70 -25 c0 -13 -5 -18 -15 -14 -12 5 -13 10 -4
20 15 19 19 18 19 -6z"/>
<path d="M1351 4126 c-8 -10 -8 -16 2 -24 17 -15 39 0 31 21 -8 21 -18 22 -33
3z"/>
<path d="M3622 4128 c-8 -8 -9 -15 -1 -25 15 -17 25 -17 32 1 8 21 -16 39 -31
24z"/>
<path d="M1632 4105 l-52 -24 42 -80 c24 -45 46 -81 49 -81 3 0 13 6 23 13 18
13 18 15 2 39 -23 35 -4 45 33 17 19 -14 36 -19 50 -14 29 9 26 20 -9 45 -21
15 -30 30 -30 49 0 27 -26 61 -46 61 -5 0 -33 -11 -62 -25z m58 -39 c0 -8 -5
-18 -11 -22 -14 -8 -33 11 -25 25 10 16 36 13 36 -3z"/>
<path d="M1286 4081 c-7 -11 3 -41 13 -41 18 0 30 24 20 37 -13 15 -26 17 -33
4z"/>
<path d="M3681 4076 c-10 -12 -8 -17 8 -25 22 -12 37 0 27 24 -7 19 -20 19
-35 1z"/>
<path d="M3391 4046 c-30 -17 -50 -53 -51 -92 0 -34 37 -76 83 -93 25 -10 29
-8 54 30 l27 41 -23 20 c-29 23 -46 19 -46 -10 0 -12 -4 -22 -8 -22 -4 0 -11
0 -17 0 -20 0 -23 50 -5 70 24 26 35 25 80 -6 30 -20 40 -23 46 -12 5 7 9 16
9 19 0 11 -46 48 -73 58 -36 14 -46 13 -76 -3z"/>
<path d="M1226 4031 c-4 -5 -3 -16 0 -25 5 -12 10 -13 26 -5 15 8 17 13 7 25
-13 16 -25 18 -33 5z"/>
<path d="M3744 4029 c-3 -6 0 -17 8 -25 13 -13 16 -13 28 1 12 14 11 18 -1 26
-19 12 -26 11 -35 -2z"/>
<path d="M1453 3992 c-24 -15 -43 -30 -43 -35 0 -8 91 -147 96 -147 12 0 103
73 108 87 7 19 -19 63 -37 63 -7 0 -18 14 -24 30 -14 38 -43 39 -100 2z m57
-36 c0 -17 -27 -29 -35 -16 -4 6 -3 15 0 20 9 15 35 12 35 -4z m50 -51 c0 -8
-9 -19 -19 -24 -25 -14 -38 14 -13 28 24 14 32 13 32 -4z"/>
<path d="M1161 3976 c-17 -20 13 -43 34 -26 12 10 13 16 4 26 -6 8 -15 14 -19
14 -4 0 -13 -6 -19 -14z"/>
<path d="M3805 3980 c-4 -6 -1 -17 5 -26 10 -11 16 -12 26 -3 11 9 11 15 3 25
-14 17 -25 18 -34 4z"/>
<path d="M3542 3894 c-28 -35 -52 -68 -52 -73 0 -5 7 -14 16 -22 13 -11 19 -8
38 16 28 35 41 20 27 -30 -8 -30 -7 -37 9 -45 26 -14 28 -13 35 18 3 15 21 40
40 55 44 35 44 60 3 98 -58 53 -58 53 -116 -17z m94 -15 c3 -6 1 -16 -4 -21
-13 -13 -45 8 -36 23 7 12 31 11 40 -2z"/>
<path d="M1110 3925 c-20 -24 4 -45 26 -24 13 14 13 17 1 27 -11 10 -17 9 -27
-3z"/>
<path d="M3866 3923 c-10 -25 11 -40 29 -22 13 13 12 16 -4 26 -16 10 -20 9
-25 -4z"/>
<path d="M1338 3906 c-25 -19 -23 -27 17 -66 26 -25 35 -42 33 -60 -5 -43 -41
-38 -84 14 -31 37 -41 43 -56 35 -28 -15 -22 -31 30 -82 54 -53 84 -59 126
-26 57 45 54 84 -11 156 -33 37 -40 40 -55 29z"/>
<path d="M1051 3867 c-9 -11 -8 -17 5 -28 13 -11 17 -10 25 2 17 28 -9 51 -30
26z"/>
<path d="M3922 3868 c-8 -8 -9 -15 0 -25 14 -17 39 2 31 23 -6 17 -15 18 -31
2z"/>
<path d="M3690 3765 c-61 -62 -63 -66 -47 -82 16 -17 21 -14 83 48 62 62 64
66 46 82 -17 16 -21 13 -82 -48z"/>
<path d="M995 3810 c-4 -6 -1 -17 5 -26 10 -11 16 -12 26 -3 11 9 11 15 3 25
-14 17 -25 18 -34 4z"/>
<path d="M3972 3808 c-19 -19 5 -40 30 -27 15 8 17 13 7 25 -14 17 -21 18 -37
2z"/>
<path d="M943 3744 c-8 -20 17 -36 34 -22 10 8 10 14 2 24 -15 18 -28 18 -36
-2z"/>
<path d="M4023 3744 c-9 -23 13 -40 32 -24 12 10 13 16 4 26 -15 18 -28 18
-36 -2z"/>
<path d="M3800 3723 c-38 -14 -70 -57 -70 -94 0 -59 64 -125 96 -98 13 11 11
16 -16 40 -31 29 -39 66 -18 87 22 22 56 13 86 -23 26 -32 30 -34 42 -20 32
38 -67 127 -120 108z"/>
<path d="M899 3684 c-11 -13 -10 -17 2 -25 20 -12 26 -11 32 5 9 23 -18 39
-34 20z"/>
<path d="M1110 3685 c-6 -8 -10 -18 -8 -23 8 -22 119 -114 132 -109 7 3 30 26
51 51 32 39 35 48 25 61 -12 14 -18 12 -50 -20 l-36 -35 -34 36 c-47 48 -65
57 -80 39z"/>
<path d="M4071 3686 c-9 -10 -8 -16 4 -26 20 -16 38 -1 29 23 -8 21 -18 22
-33 3z"/>
<path d="M851 3616 c-10 -12 -8 -17 7 -25 16 -8 21 -7 26 5 12 31 -12 45 -33
20z"/>
<path d="M4115 3620 c-4 -6 -1 -17 5 -26 15 -18 42 0 33 22 -6 16 -29 19 -38
4z"/>
<path d="M809 3554 c-11 -13 -10 -17 2 -25 20 -12 26 -11 32 5 9 23 -18 39
-34 20z"/>
<path d="M4166 3557 c-16 -12 -17 -14 -1 -27 20 -17 41 0 28 24 -7 14 -12 14
-27 3z"/>
<path d="M3902 3540 c-58 -35 -65 -93 -18 -147 47 -55 145 -26 161 48 8 36
-17 84 -55 104 -38 20 -48 19 -88 -5z m82 -49 c22 -25 13 -58 -20 -73 -19 -9
-28 -8 -44 7 -25 23 -25 40 0 65 25 25 42 25 64 1z"/>
<path d="M990 3525 c-11 -20 -10 -27 9 -53 11 -17 21 -33 21 -36 0 -4 -18 -3
-40 0 -33 5 -44 3 -55 -12 -8 -11 -15 -22 -15 -25 0 -3 31 -9 69 -12 39 -3 80
-11 92 -17 17 -10 24 -9 37 4 15 15 14 18 -11 42 -15 14 -38 47 -52 74 -31 60
-39 66 -55 35z"/>
<path d="M766 3483 c-6 -15 8 -32 25 -33 14 0 19 34 7 42 -19 11 -25 10 -32
-9z"/>
<path d="M4203 3484 c-8 -21 13 -42 28 -27 13 13 5 43 -11 43 -6 0 -13 -7 -17
-16z"/>
<path d="M1826 3457 c-24 -24 -22 -16 -53 -334 l-6 -63 -81 -24 c-44 -14 -152
-46 -240 -72 -143 -43 -163 -52 -207 -92 -58 -52 -79 -109 -79 -212 l0 -67
-39 -15 c-57 -23 -75 -63 -73 -162 3 -132 33 -157 190 -164 l107 -5 25 -49
c49 -100 170 -181 291 -195 134 -16 298 75 357 198 l23 47 149 4 c164 4 182
11 195 69 6 28 8 29 70 29 l63 0 11 -50 c24 -113 109 -218 214 -266 52 -24 75
-28 147 -29 74 0 93 4 150 31 59 28 160 114 160 136 0 4 16 8 35 8 38 0 41 -6
25 -59 -6 -22 -6 -40 1 -52 9 -18 28 -19 369 -19 356 0 359 0 365 21 9 26 -4
39 -43 48 -26 5 -59 46 -227 281 -129 181 -205 279 -222 286 -51 22 -83 -2
-105 -80 l-14 -48 -61 56 -61 56 -4 94 c-2 77 -7 98 -23 116 -32 36 -78 50
-167 50 -78 0 -86 2 -115 29 -18 16 -36 46 -43 69 -33 124 -169 168 -261 85
-49 -44 -59 -81 -59 -215 l0 -108 -100 0 -100 0 0 310 c0 326 -4 358 -45 374
-9 3 -124 6 -256 6 -237 0 -240 0 -263 -23z m484 -217 l0 -170 -235 0 c-181 0
-235 3 -235 13 0 6 7 75 15 152 8 77 15 148 15 158 0 16 17 17 220 17 l220 0
0 -170z m-490 -600 c224 -112 225 -428 2 -537 -79 -39 -184 -39 -257 -1 -107
56 -168 153 -168 268 0 131 83 246 206 286 60 20 161 12 217 -16z m1197 1 c65
-33 110 -77 140 -139 38 -78 40 -183 4 -256 -31 -63 -84 -116 -147 -147 -69
-33 -179 -33 -248 0 -242 118 -224 463 29 554 66 23 164 18 222 -12z"/>
<path d="M1636 2546 c-106 -39 -156 -158 -107 -254 78 -152 287 -133 340 31
44 132 -101 271 -233 223z"/>
<path d="M2848 2551 c-79 -25 -128 -84 -136 -161 -6 -65 2 -93 40 -136 40 -45
82 -64 143 -64 56 0 92 18 133 64 54 62 60 133 19 213 -31 58 -137 103 -199
84z"/>
<path d="M730 3411 c-7 -15 -6 -20 7 -25 15 -6 32 8 33 25 0 17 -31 16 -40 0z"/>
<path d="M4242 3422 c-12 -8 -7 -42 7 -42 17 1 31 18 25 33 -7 19 -13 20 -32
9z"/>
<path d="M4028 3339 c-43 -22 -78 -44 -78 -50 0 -15 60 -119 68 -119 4 0 13 4
20 9 11 7 10 16 -7 49 l-21 42 60 30 c56 29 60 32 49 53 -7 12 -12 23 -13 23
0 1 -36 -16 -78 -37z"/>
<path d="M694 3345 c-3 -8 -3 -19 1 -25 11 -17 35 -11 35 9 0 23 -29 36 -36
16z"/>
<path d="M4283 3353 c-15 -6 -17 -29 -3 -38 5 -3 17 -2 25 2 12 7 13 12 3 25
-7 9 -19 14 -25 11z"/>
<path d="M662 3263 c2 -10 10 -18 18 -18 8 0 16 8 18 18 2 12 -3 17 -18 17
-15 0 -20 -5 -18 -17z"/>
<path d="M4304 3269 c-9 -15 11 -33 30 -26 9 4 13 13 10 22 -7 17 -30 20 -40
4z"/>
<path d="M825 3230 c-8 -16 -15 -43 -15 -59 0 -56 71 -67 104 -16 9 14 21 25
26 25 17 0 11 -26 -11 -55 -18 -22 -20 -29 -8 -36 20 -13 31 -7 57 31 26 39
28 72 6 94 -24 24 -57 19 -89 -14 -37 -38 -57 -24 -26 18 18 26 19 31 5 36
-26 10 -33 7 -49 -24z"/>
<path d="M633 3194 c-7 -18 17 -38 31 -24 11 11 1 40 -14 40 -6 0 -13 -7 -17
-16z"/>
<path d="M4336 3201 c-11 -18 5 -39 25 -34 13 4 18 11 15 20 -3 8 -6 17 -6 19
0 8 -29 4 -34 -5z"/>
<path d="M4020 3144 c0 -16 23 -44 36 -44 20 0 38 -48 23 -66 -11 -13 -4 -54
10 -54 6 0 94 70 129 104 8 8 11 23 6 39 -6 27 -6 27 -105 27 -54 0 -99 -3
-99 -6z m140 -43 c0 -13 -28 -22 -35 -11 -3 4 1 11 7 13 20 8 28 8 28 -2z"/>
<path d="M606 3123 c-4 -8 -4 -19 0 -24 5 -9 34 -13 34 -5 0 2 3 11 6 19 3 9
-2 16 -15 20 -12 3 -22 -1 -25 -10z"/>
<path d="M4373 3133 c-18 -7 -16 -43 2 -43 18 0 31 28 19 39 -5 5 -15 6 -21 4z"/>
<path d="M751 3032 c-11 -36 -18 -68 -16 -72 5 -8 164 -55 168 -49 6 8 37 116
37 127 0 7 -8 12 -18 12 -13 0 -22 -12 -31 -40 -7 -24 -18 -40 -27 -40 -11 0
-13 6 -8 23 12 37 10 51 -7 55 -11 2 -20 -7 -27 -27 -11 -30 -22 -38 -35 -25
-3 3 1 24 9 46 17 50 18 45 -6 51 -17 4 -22 -4 -39 -61z"/>
<path d="M587 3054 c-14 -15 -6 -34 14 -34 14 0 19 5 17 17 -3 18 -20 27 -31
17z"/>
<path d="M4384 3045 c-3 -8 -3 -19 0 -24 10 -16 36 -1 36 20 0 22 -28 26 -36
4z"/>
<path d="M560 2960 c0 -13 7 -20 20 -20 13 0 20 7 20 20 0 13 -7 20 -20 20
-13 0 -20 -7 -20 -20z"/>
<path d="M4196 2967 c-9 -7 -20 -32 -23 -55 -9 -63 -33 -49 -33 20 0 23 -4 29
-16 24 -9 -3 -18 -6 -20 -6 -11 0 -2 -74 11 -100 30 -58 105 -28 105 42 0 15
4 29 9 32 11 7 21 -17 21 -50 0 -26 1 -27 24 -18 28 11 15 94 -18 116 -17 11
-40 9 -60 -5z"/>
<path d="M4402 2963 c5 -26 38 -29 38 -4 0 15 -6 21 -21 21 -14 0 -19 -5 -17
-17z"/>
<path d="M546 2893 c-4 -8 -4 -19 0 -24 5 -9 34 -13 34 -5 0 2 3 11 6 19 3 9
-2 16 -15 20 -12 3 -22 -1 -25 -10z"/>
<path d="M4420 2880 c0 -13 7 -20 20 -20 13 0 20 7 20 20 0 13 -7 20 -20 20
-13 0 -20 -7 -20 -20z"/>
<path d="M710 2866 c0 -19 7 -25 43 -32 l42 -10 -52 -29 c-38 -22 -53 -36 -53
-51 0 -19 9 -23 80 -34 98 -15 94 -16 98 15 3 21 -1 25 -25 25 -57 0 -58 16
-4 46 39 21 51 33 49 48 -2 16 -15 22 -68 32 -98 19 -110 18 -110 -10z"/>
<path d="M532 2808 c4 -29 38 -38 38 -10 0 11 -7 23 -16 26 -24 9 -26 8 -22
-16z"/>
<path d="M4443 2823 c-15 -5 -17 -29 -4 -37 17 -11 39 5 34 25 -5 20 -9 21
-30 12z"/>
<path d="M520 2731 c0 -21 26 -36 36 -20 9 15 -3 39 -21 39 -8 0 -15 -9 -15
-19z"/>
<path d="M4444 2735 c-8 -21 3 -34 25 -28 13 3 17 11 14 24 -6 22 -31 25 -39
4z"/>
<path d="M4205 2701 l-60 -6 3 -55 c5 -85 52 -132 115 -116 51 12 68 43 65
116 -3 65 -3 65 -33 66 -16 1 -57 -2 -90 -5z m75 -79 c0 -32 -16 -52 -41 -52
-21 0 -35 17 -44 53 -7 27 -6 27 39 27 44 0 46 -1 46 -28z"/>
<path d="M510 2650 c0 -13 7 -20 20 -20 13 0 20 7 20 20 0 13 -7 20 -20 20
-13 0 -20 -7 -20 -20z"/>
<path d="M4450 2650 c0 -13 7 -20 20 -20 13 0 20 7 20 20 0 13 -7 20 -20 20
-13 0 -20 -7 -20 -20z"/>
<path d="M712 2653 c-19 -7 -42 -58 -42 -92 0 -17 10 -42 24 -58 20 -23 32
-28 70 -28 56 0 85 25 93 82 4 32 1 44 -22 71 -23 27 -33 32 -68 31 -23 0 -48
-3 -55 -6z m86 -55 c36 -36 -11 -93 -57 -69 -20 11 -30 59 -14 74 11 11 58 8
71 -5z"/>
<path d="M510 2570 c0 -13 7 -20 20 -20 13 0 20 7 20 20 0 13 -7 20 -20 20
-13 0 -20 -7 -20 -20z"/>
<path d="M4457 2583 c-14 -13 -6 -33 13 -33 13 0 20 7 20 20 0 19 -20 27 -33
13z"/>
<path d="M510 2490 c0 -13 7 -20 20 -20 13 0 20 7 20 20 0 13 -7 20 -20 20
-13 0 -20 -7 -20 -20z"/>
<path d="M4460 2490 c0 -11 7 -20 15 -20 8 0 15 9 15 20 0 11 -7 20 -15 20 -8
0 -15 -9 -15 -20z"/>
<path d="M4150 2406 c0 -69 2 -76 20 -76 17 0 20 7 20 45 0 33 4 45 15 45 10
0 15 -11 15 -35 0 -28 4 -35 20 -35 16 0 20 7 20 35 0 24 5 35 15 35 11 0 15
-12 15 -44 0 -30 5 -46 15 -50 19 -7 23 3 27 82 4 61 4 62 -21 62 -14 0 -56 3
-93 7 l-68 6 0 -77z"/>
<path d="M510 2410 c0 -13 7 -20 20 -20 13 0 20 7 20 20 0 13 -7 20 -20 20
-13 0 -20 -7 -20 -20z"/>
<path d="M718 2423 c-43 -4 -48 -7 -48 -29 0 -22 4 -24 43 -24 23 0 66 3 95 7
47 5 53 8 50 27 -3 18 -10 21 -48 22 -25 0 -66 -1 -92 -3z"/>
<path d="M4450 2410 c0 -13 7 -20 20 -20 13 0 20 7 20 20 0 13 -7 20 -20 20
-13 0 -20 -7 -20 -20z"/>
<path d="M510 2330 c0 -13 7 -20 18 -20 24 0 32 8 25 26 -8 22 -43 17 -43 -6z"/>
<path d="M4450 2330 c0 -13 7 -20 20 -20 13 0 20 7 20 20 0 13 -7 20 -20 20
-13 0 -20 -7 -20 -20z"/>
<path d="M818 2335 c-3 -3 -3 -26 0 -50 5 -51 -8 -75 -42 -75 -33 0 -46 19
-46 68 0 39 -2 43 -22 40 -21 -3 -23 -8 -23 -57 1 -46 5 -57 29 -77 31 -27 74
-31 115 -9 33 16 41 33 41 80 0 61 -28 104 -52 80z"/>
<path d="M4136 2256 c-4 -23 -9 -56 -12 -73 -6 -30 -4 -33 20 -33 20 0 26 5
26 23 0 38 12 68 25 63 6 -2 37 -7 68 -11 57 -7 57 -7 57 19 0 14 -3 26 -7 26
-5 0 -45 6 -89 14 l-82 13 -6 -41z"/>
<path d="M520 2250 c0 -13 7 -20 20 -20 13 0 20 7 20 20 0 13 -7 20 -20 20
-13 0 -20 -7 -20 -20z"/>
<path d="M4440 2250 c0 -13 7 -20 20 -20 13 0 20 7 20 20 0 13 -7 20 -20 20
-13 0 -20 -7 -20 -20z"/>
<path d="M530 2175 c0 -18 24 -30 39 -21 16 10 1 36 -20 36 -10 0 -19 -7 -19
-15z"/>
<path d="M4430 2170 c0 -13 7 -20 20 -20 13 0 20 7 20 20 0 13 -7 20 -20 20
-13 0 -20 -7 -20 -20z"/>
<path d="M845 2130 c-3 -5 -1 -18 5 -29 5 -11 10 -34 10 -51 0 -23 -6 -33 -25
-40 -14 -5 -31 -7 -39 -4 -16 6 -36 55 -36 87 0 13 -5 17 -16 13 -9 -3 -18 -6
-20 -6 -10 0 -3 -74 11 -99 43 -85 175 -50 175 46 0 61 -44 117 -65 83z"/>
<path d="M559 2113 c-11 -3 -15 -11 -12 -24 4 -13 11 -18 20 -15 8 3 17 6 19
6 7 0 4 29 -3 33 -5 2 -15 2 -24 0z"/>
<path d="M4416 2103 c-6 -15 8 -32 25 -33 14 0 19 34 7 42 -19 11 -25 10 -32
-9z"/>
<path d="M4077 1997 c-9 -30 -17 -61 -17 -69 0 -23 28 -42 64 -45 17 -1 46 -5
64 -9 30 -6 33 -4 51 37 37 84 41 80 -126 133 -16 5 -22 -3 -36 -47z m63 -30
c0 -7 -5 -19 -10 -27 -14 -23 -30 0 -19 28 9 23 29 22 29 -1z m68 -24 c-5 -25
-28 -28 -28 -4 0 12 6 21 16 21 9 0 14 -7 12 -17z"/>
<path d="M568 2034 c-3 -3 -4 -13 -1 -23 3 -13 11 -17 24 -14 13 4 18 11 15
20 -3 8 -6 17 -6 19 0 6 -26 5 -32 -2z"/>
<path d="M4400 2021 c0 -21 26 -36 36 -20 9 15 -3 39 -21 39 -8 0 -15 -9 -15
-19z"/>
<path d="M587 1953 c-3 -5 -2 -15 3 -22 10 -17 43 -6 38 12 -6 15 -34 22 -41
10z"/>
<path d="M4376 1945 c-6 -17 17 -31 34 -20 5 3 10 13 10 21 0 19 -36 18 -44
-1z"/>
<path d="M914 1936 c-3 -7 1 -30 10 -49 13 -31 13 -36 0 -41 -10 -4 -19 4 -26
25 -7 20 -16 29 -27 27 -17 -4 -19 -18 -7 -55 13 -42 -23 -26 -40 17 -17 41
-21 45 -40 32 -9 -5 -5 -25 14 -72 14 -36 26 -66 27 -67 1 -2 38 12 83 30 92
36 91 32 52 121 -19 46 -36 58 -46 32z"/>
<path d="M1880 1620 l0 -280 55 0 55 0 0 125 c0 118 1 125 20 125 19 0 20 -7
20 -125 l0 -125 55 0 55 0 0 130 c0 116 -2 132 -19 147 -19 16 -19 16 1 33 15
12 22 32 26 73 6 76 -4 124 -33 153 -22 22 -32 24 -130 24 l-105 0 0 -280z
m144 174 c19 -7 22 -74 4 -92 -25 -25 -38 -13 -38 36 0 59 5 67 34 56z"/>
<path d="M2220 1620 l0 -280 116 0 115 0 -3 48 -3 47 -57 3 -58 3 0 229 0 230
-55 0 -55 0 0 -280z"/>
<path d="M2550 1893 c0 -5 -11 -120 -25 -258 -14 -137 -25 -260 -25 -272 0
-21 5 -23 55 -23 l55 0 0 45 c0 45 0 45 35 45 30 0 35 -3 35 -22 0 -58 9 -68
61 -68 48 0 49 1 49 31 0 35 -38 448 -46 497 l-5 32 -94 0 c-52 0 -95 -3 -95
-7z m114 -290 l7 -83 -26 0 c-26 0 -27 2 -22 43 4 23 9 87 14 142 l7 100 7
-60 c4 -33 10 -97 13 -142z"/>
<path d="M2860 1620 l0 -280 89 0 c102 0 133 9 156 43 38 59 37 210 -3 249
l-21 21 22 18 c19 15 22 27 22 87 0 77 -15 114 -52 131 -13 6 -66 11 -118 11
l-95 0 0 -280z m158 161 c7 -46 -7 -91 -28 -91 -18 0 -20 7 -20 61 0 57 1 60
23 57 14 -2 23 -11 25 -27z m-3 -261 c0 -70 -1 -75 -22 -78 -22 -3 -23 -1 -23
78 0 79 1 81 23 78 21 -3 22 -8 22 -78z"/>
<path d="M621 1880 c-19 -11 -6 -41 14 -34 16 6 20 29 7 38 -4 2 -14 1 -21 -4z"/>
<path d="M4356 1873 c-6 -15 8 -32 25 -33 15 0 16 39 2 44 -20 8 -20 8 -27
-11z"/>
<path d="M4025 1849 c-4 -12 -2 -26 3 -31 14 -14 -13 -68 -33 -68 -13 0 -41
-37 -33 -45 2 -2 46 -5 98 -7 l94 -3 10 29 c10 27 8 32 -54 87 -36 32 -68 59
-72 59 -4 0 -10 -9 -13 -21z m75 -94 c10 -13 9 -15 -9 -15 -12 0 -21 6 -21 15
0 8 4 15 9 15 5 0 14 -7 21 -15z"/>
<path d="M637 1803 c-3 -5 -2 -15 3 -22 10 -17 43 -6 38 12 -6 15 -34 22 -41
10z"/>
<path d="M4326 1795 c-3 -9 1 -18 10 -22 19 -7 39 11 30 26 -10 16 -33 13 -40
-4z"/>
<path d="M674 1734 c-12 -5 -7 -44 5 -44 17 1 33 20 28 34 -6 16 -13 18 -33
10z"/>
<path d="M4296 1724 c-8 -21 -8 -21 13 -27 20 -5 36 17 25 34 -9 14 -31 10
-38 -7z"/>
<path d="M941 1721 c-12 -8 -12 -13 3 -35 16 -26 14 -46 -4 -46 -5 0 -19 18
-30 40 -18 35 -23 39 -40 30 -19 -10 -19 -12 10 -70 17 -33 35 -60 40 -60 22
0 150 71 150 83 -1 29 -16 40 -40 27 -20 -11 -25 -10 -37 6 -7 10 -13 21 -13
26 0 11 -21 10 -39 -1z"/>
<path d="M3930 1669 c-20 -37 -4 -65 59 -103 32 -20 63 -36 69 -36 8 0 22 22
22 36 0 2 -25 19 -55 38 -40 26 -53 40 -48 52 3 9 0 20 -8 25 -21 13 -27 11
-39 -12z"/>
<path d="M711 1661 c-15 -10 -8 -41 9 -41 15 0 25 29 14 40 -5 5 -15 5 -23 1z"/>
<path d="M4266 1653 c-6 -15 8 -32 25 -33 14 0 19 34 7 42 -19 11 -25 10 -32
-9z"/>
<path d="M1075 1610 c-3 -6 3 -26 16 -46 15 -24 18 -39 11 -46 -7 -7 -15 -2
-27 16 -19 28 -23 30 -44 17 -11 -7 -10 -13 4 -35 13 -19 15 -30 7 -38 -7 -7
-17 0 -34 26 -23 36 -41 45 -53 26 -6 -9 62 -120 74 -120 3 0 39 22 79 48 l72
49 -37 53 c-40 56 -57 68 -68 50z"/>
<path d="M742 1592 c-12 -8 -7 -42 7 -42 17 1 31 18 25 33 -7 19 -13 20 -32 9z"/>
<path d="M4229 1584 c-10 -13 -10 -17 2 -25 18 -11 33 -6 37 13 4 22 -24 30
-39 12z"/>
<path d="M3860 1555 c-7 -9 -11 -17 -9 -19 35 -27 139 -96 145 -96 5 0 15 9
21 19 11 17 4 24 -57 65 -77 51 -82 53 -100 31z"/>
<path d="M782 1522 c-12 -8 -7 -42 7 -42 17 1 31 18 25 33 -7 19 -13 20 -32 9z"/>
<path d="M4193 1514 c-7 -19 11 -39 26 -30 16 10 13 33 -4 40 -9 3 -18 -1 -22
-10z"/>
<path d="M1180 1451 c-7 -18 -27 -38 -49 -48 -50 -25 -53 -60 -11 -113 17 -22
35 -40 39 -40 13 0 131 104 131 116 0 6 -6 17 -14 23 -10 8 -19 6 -39 -9 -33
-26 -43 -11 -21 31 15 30 15 33 -4 51 -19 19 -19 19 -32 -11z m-11 -128 c-15
-18 -34 -1 -25 22 5 14 9 15 21 5 12 -10 13 -16 4 -27z"/>
<path d="M3791 1456 c-84 -46 -53 -176 43 -179 51 -1 96 45 96 99 0 71 -76
115 -139 80z m70 -46 c25 -14 26 -66 1 -79 -42 -22 -92 38 -62 75 15 17 34 18
61 4z"/>
<path d="M821 1451 c-12 -8 -13 -12 -2 -25 16 -19 43 -3 34 20 -6 16 -12 17
-32 5z"/>
<path d="M4147 1446 c-3 -8 1 -20 9 -27 13 -10 17 -10 25 2 5 8 7 19 6 24 -6
16 -34 17 -40 1z"/>
<path d="M866 1387 c-16 -12 -17 -14 -1 -27 20 -17 41 0 28 24 -7 14 -12 14
-27 3z"/>
<path d="M4105 1380 c-8 -13 3 -30 20 -30 14 0 27 24 18 34 -10 9 -31 7 -38
-4z"/>
<path d="M911 1321 c-12 -8 -13 -12 -1 -26 12 -14 15 -14 28 -1 8 8 11 19 8
25 -9 13 -16 14 -35 2z"/>
<path d="M4061 1317 c-9 -11 -8 -17 5 -28 13 -11 17 -10 25 2 17 28 -9 51 -30
26z"/>
<path d="M1336 1264 c-31 -30 -10 -94 30 -94 34 0 54 20 54 55 0 50 -50 73
-84 39z"/>
<path d="M3596 1264 c-31 -30 -10 -94 30 -94 34 0 54 20 54 55 0 50 -50 73
-84 39z"/>
<path d="M962 1257 c-7 -7 -7 -18 -2 -27 7 -11 11 -11 24 -1 8 7 12 19 9 27
-6 17 -17 18 -31 1z"/>
<path d="M4011 1256 c-9 -10 -8 -16 4 -26 19 -16 41 1 32 24 -8 20 -21 20 -36
2z"/>
<path d="M1690 1203 c-29 -28 -90 -171 -90 -214 0 -11 12 -31 26 -46 14 -14
24 -26 22 -27 -2 -1 -15 -8 -30 -15 -73 -37 -26 -127 54 -105 25 7 39 20 55
53 29 57 85 91 126 77 20 -7 33 -7 47 1 14 9 26 9 48 1 22 -9 37 -9 54 -1 16
7 30 7 46 0 15 -7 30 -7 46 0 13 7 29 8 37 2 18 -11 90 -9 106 3 7 5 22 39 33
74 20 60 41 86 57 71 3 -4 -2 -24 -11 -47 -20 -51 -20 -74 0 -94 18 -18 65
-21 81 -5 8 8 17 7 32 -2 16 -11 27 -11 51 -2 19 7 32 8 36 1 3 -5 4 -10 3
-11 -37 -19 -46 -28 -59 -55 l-15 -32 -268 0 c-230 0 -268 -2 -273 -15 -4 -8
-1 -22 6 -30 11 -13 89 -15 599 -13 l586 3 0 25 0 25 -247 3 c-146 1 -248 6
-248 12 0 49 77 102 123 86 20 -7 34 -7 47 1 14 9 26 9 48 1 22 -9 37 -9 54
-1 16 7 30 7 46 0 14 -7 29 -7 44 0 15 6 31 6 49 -1 20 -7 35 -7 53 2 18 8 32
8 55 -1 24 -9 39 -8 67 2 26 9 39 10 47 2 16 -16 73 -13 87 4 7 8 26 15 42 15
32 0 88 47 88 74 0 29 -22 28 -51 -4 -36 -39 -45 -34 -28 14 24 65 -21 111
-88 89 -21 -7 -36 -25 -60 -75 -52 -108 -103 -114 -68 -8 12 36 22 50 35 50
26 0 36 21 17 35 -14 10 -14 17 -5 49 8 27 9 39 0 48 -18 18 -40 1 -53 -42 -9
-28 -21 -45 -36 -51 -24 -9 -31 -35 -11 -41 16 -6 -15 -89 -42 -113 -31 -28
-34 -12 -11 56 31 94 31 96 -34 97 -66 0 -85 -14 -110 -82 -18 -48 -51 -93
-62 -82 -4 3 5 37 18 76 18 52 21 72 12 81 -21 21 -41 1 -62 -64 -21 -61 -51
-104 -63 -91 -4 3 4 36 17 74 20 60 22 70 9 81 -20 16 -35 -1 -58 -63 -18 -49
-51 -98 -66 -98 -5 0 3 31 17 69 44 120 2 143 -48 26 -49 -118 -93 -129 -54
-14 14 40 23 75 20 79 -7 12 -108 9 -124 -4 -8 -6 -27 -40 -43 -76 -16 -35
-34 -68 -41 -72 -21 -13 -26 3 -11 44 31 87 15 116 -63 115 l-42 0 -27 -68
c-26 -66 -57 -109 -70 -96 -3 3 3 34 15 68 31 94 31 96 -34 97 -66 0 -85 -14
-110 -82 -18 -48 -51 -93 -62 -82 -4 3 5 37 18 76 18 52 21 72 12 81 -21 21
-41 1 -62 -64 -21 -61 -51 -104 -63 -91 -4 3 4 36 17 74 20 60 22 70 9 81 -20
16 -35 -1 -58 -63 -18 -49 -51 -98 -66 -98 -5 0 0 25 12 55 11 30 18 61 14 70
-11 30 -38 11 -58 -40 -11 -27 -24 -55 -30 -62 -14 -18 -47 -16 -55 2 -6 17
29 125 53 163 18 28 50 29 57 1 4 -15 12 -20 29 -17 33 4 35 42 4 73 -34 34
-77 33 -116 -2z m435 -160 c-8 -46 -34 -88 -46 -76 -13 13 22 113 39 113 11 0
13 -9 7 -37z m388 8 c-4 -35 -31 -91 -44 -91 -13 0 -8 46 10 93 13 32 37 31
34 -2z m482 -8 c-8 -46 -34 -88 -46 -76 -13 13 22 113 39 113 11 0 13 -9 7
-37z m335 22 c0 -8 -9 -19 -19 -25 -12 -6 -21 -23 -23 -42 -2 -17 -9 -34 -17
-36 -11 -4 -13 3 -8 29 10 60 25 89 47 89 11 0 20 -7 20 -15z m-1656 -209 c-7
-17 -34 -23 -34 -6 0 9 32 31 38 26 1 -2 0 -11 -4 -20z m870 0 c-7 -17 -34
-23 -34 -6 0 9 32 31 38 26 1 -2 0 -11 -4 -20z"/>
<path d="M2674 1206 c-9 -24 4 -48 23 -44 12 2 18 12 18 28 0 29 -32 41 -41
16z"/>
<path d="M1011 1196 c-9 -10 -8 -16 4 -26 20 -16 38 -1 29 23 -8 21 -18 22
-33 3z"/>
<path d="M3961 1196 c-8 -10 -7 -17 3 -26 17 -13 36 -6 36 15 0 19 -27 26 -39
11z"/>
<path d="M1063 1134 c-9 -23 13 -40 32 -24 12 10 13 16 4 26 -15 18 -28 18
-36 -2z"/>
<path d="M3905 1140 c-4 -6 -1 -17 5 -26 10 -11 16 -12 26 -3 11 9 11 15 3 25
-14 17 -25 18 -34 4z"/>
<path d="M1120 1086 c-10 -13 -10 -19 0 -32 12 -14 15 -14 29 0 14 15 14 17 0
32 -14 14 -17 14 -29 0z"/>
<path d="M3850 1086 c-10 -13 -10 -19 0 -32 12 -14 15 -14 29 0 14 15 14 17 0
32 -14 14 -17 14 -29 0z"/>
<path d="M1181 1026 c-8 -10 -8 -16 3 -25 10 -9 16 -8 26 3 12 15 6 36 -9 36
-5 0 -14 -6 -20 -14z"/>
<path d="M3792 1028 c-19 -19 5 -40 30 -27 15 8 17 13 7 25 -14 17 -21 18 -37
2z"/>
<path d="M1241 976 c-8 -10 -7 -17 5 -27 13 -11 17 -10 25 2 12 20 11 26 -5
32 -8 3 -19 0 -25 -7z"/>
<path d="M3731 976 c-9 -10 -8 -16 4 -26 19 -16 41 1 32 24 -8 20 -21 20 -36
2z"/>
<path d="M1301 927 c-9 -11 -8 -17 5 -28 13 -11 17 -10 25 2 17 28 -9 51 -30
26z"/>
<path d="M3671 931 c-12 -8 -13 -12 -2 -25 16 -19 43 -3 34 20 -6 16 -12 17
-32 5z"/>
<path d="M3611 886 c-8 -9 -9 -21 -4 -31 7 -13 12 -13 26 -2 15 10 16 15 4 31
-12 16 -14 16 -26 2z"/>
<path d="M1365 880 c-4 -6 -1 -18 6 -26 12 -14 14 -14 26 2 7 9 10 21 7 25 -7
12 -31 11 -39 -1z"/>
<path d="M1431 836 c-10 -12 -8 -17 8 -25 22 -12 37 0 27 24 -7 19 -20 19 -35
1z"/>
<path d="M3536 841 c-7 -11 3 -41 13 -41 14 0 29 23 24 36 -6 16 -29 19 -37 5z"/>
<path d="M1497 796 c-5 -13 10 -36 24 -36 14 0 19 34 7 42 -18 11 -25 10 -31
-6z"/>
<path d="M3470 800 c-13 -8 -13 -11 0 -24 18 -19 43 -6 34 17 -7 19 -13 21
-34 7z"/>
<path d="M1566 755 c-3 -8 3 -19 13 -25 15 -7 20 -6 25 6 3 9 4 20 0 25 -8 14
-31 11 -38 -6z"/>
<path d="M3403 762 c-10 -7 -10 -12 0 -25 15 -20 43 -7 34 17 -7 18 -16 20
-34 8z"/>
<path d="M1640 721 c-7 -15 -6 -20 6 -25 19 -7 34 1 34 19 0 22 -29 26 -40 6z"/>
<path d="M3337 732 c-12 -2 -16 -9 -13 -19 3 -8 6 -17 6 -19 0 -8 29 -4 35 6
10 16 -8 36 -28 32z"/>
<path d="M1710 680 c0 -13 7 -20 20 -20 13 0 20 7 20 20 0 13 -7 20 -20 20
-13 0 -20 -7 -20 -20z"/>
<path d="M3254 689 c-9 -15 11 -33 30 -26 9 4 13 13 10 22 -7 17 -30 20 -40 4z"/>
<path d="M1787 663 c-14 -13 -6 -33 12 -33 19 0 35 23 24 34 -8 8 -28 8 -36
-1z"/>
<path d="M3180 650 c0 -13 7 -20 20 -20 13 0 20 7 20 20 0 13 -7 20 -20 20
-13 0 -20 -7 -20 -20z"/>
<path d="M1857 631 c-5 -20 17 -36 34 -25 14 9 10 31 -7 38 -21 8 -21 8 -27
-13z"/>
<path d="M3117 642 c-12 -2 -16 -9 -13 -19 3 -8 6 -17 6 -19 0 -8 29 -4 35 6
10 16 -8 36 -28 32z"/>
<path d="M1937 613 c-14 -13 -6 -33 12 -33 19 0 35 23 24 34 -8 8 -28 8 -36
-1z"/>
<path d="M3030 600 c0 -13 7 -20 20 -20 13 0 20 7 20 20 0 13 -7 20 -20 20
-13 0 -20 -7 -20 -20z"/>
<path d="M2010 580 c0 -13 7 -20 20 -20 13 0 20 7 20 20 0 13 -7 20 -20 20
-13 0 -20 -7 -20 -20z"/>
<path d="M2952 583 c2 -10 14 -20 27 -21 19 -3 22 0 17 13 -3 9 -6 19 -6 21 0
2 -9 4 -21 4 -14 0 -19 -5 -17 -17z"/>
<path d="M2887 582 c-12 -2 -16 -9 -13 -19 3 -8 6 -17 6 -19 0 -2 9 -4 20 -4
20 0 26 16 12 35 -4 6 -15 9 -25 7z"/>
<path d="M2090 560 c0 -13 7 -20 20 -20 13 0 20 7 20 20 0 13 -7 20 -20 20
-13 0 -20 -7 -20 -20z"/>
<path d="M2166 555 c-9 -25 -8 -27 17 -23 12 2 22 10 22 18 0 21 -31 24 -39 5z"/>
<path d="M2800 550 c0 -13 7 -20 20 -20 13 0 20 7 20 20 0 13 -7 20 -20 20
-13 0 -20 -7 -20 -20z"/>
<path d="M2247 553 c-13 -12 -7 -31 12 -36 13 -3 21 1 24 14 7 26 -18 41 -36
22z"/>
<path d="M2720 540 c0 -13 7 -20 20 -20 13 0 20 7 20 20 0 13 -7 20 -20 20
-13 0 -20 -7 -20 -20z"/>
<path d="M2320 530 c0 -13 7 -20 20 -20 13 0 20 7 20 20 0 13 -7 20 -20 20
-13 0 -20 -7 -20 -20z"/>
<path d="M2407 543 c-14 -13 -6 -33 13 -33 13 0 20 7 20 20 0 19 -20 27 -33
13z"/>
<path d="M2560 530 c0 -13 7 -20 20 -20 13 0 20 7 20 20 0 13 -7 20 -20 20
-13 0 -20 -7 -20 -20z"/>
<path d="M2640 530 c0 -13 7 -20 20 -20 13 0 20 7 20 20 0 13 -7 20 -20 20
-13 0 -20 -7 -20 -20z"/>
<path d="M2480 525 c0 -8 9 -15 20 -15 11 0 20 7 20 15 0 8 -9 15 -20 15 -11
0 -20 -7 -20 -15z"/>
</g>
</svg>
